<svg xmlns="http://www.w3.org/2000/svg" xmlns:xlink="http://www.w3.org/1999/xlink" viewBox="0 0 516 571.65"><defs><style>.cls-1{fill:url(#linear-gradient);}</style><linearGradient id="linear-gradient" x1="455.11" y1="88.72" x2="60.89" y2="482.94" gradientUnits="userSpaceOnUse"><stop offset="0" stop-color="#49ed8b"/><stop offset="0.26" stop-color="#3fdaa6"/><stop offset="0.83" stop-color="#27aae9"/><stop offset="1" stop-color="#1f9aff"/></linearGradient></defs><g id="Layer_2" data-name="Layer 2"><g id="Layer_1-2" data-name="Layer 1"><path class="cls-1" d="M477,114.38,297,10.41a78.11,78.11,0,0,0-77.92,0L39,114.38A78.13,78.13,0,0,0,0,181.85v208a78.12,78.12,0,0,0,39,67.47L219,561.25a78.18,78.18,0,0,0,77.92,0L477,457.27a78.12,78.12,0,0,0,39-67.47V181.85A78.13,78.13,0,0,0,477,114.38ZM282.14,39.7,461,142.24a45.85,45.85,0,0,1,22.87,39.61v27.8L274.08,104.78V44.37A5.39,5.39,0,0,1,282.14,39.7ZM55,142.24,233.86,39.7a5.39,5.39,0,0,1,8.06,4.67v60.41L32.17,209.65v-27.8A45.85,45.85,0,0,1,55,142.24ZM233.86,532,55,429.42A45.88,45.88,0,0,1,32.17,389.8V272.59L241.92,167.72V527.28A5.38,5.38,0,0,1,233.86,532ZM461,429.42l-60.62,34.75V354.75A22.49,22.49,0,0,0,382,332.65l-41.91-13.76A22.47,22.47,0,0,0,313.49,341V514l-31.35,18a5.38,5.38,0,0,1-8.06-4.67V167.72L483.83,272.59V389.8A45.88,45.88,0,0,1,461,429.42Z"/></g></g></svg>